<svg viewBox="0 0 720 400" xmlns="http://www.w3.org/2000/svg" font-family="Segoe UI, Helvetica, Arial, sans-serif">
  <!-- data: measured by `ct eval` — see README "Measured transfer fidelity" -->
  <text x="360" y="28" text-anchor="middle" font-size="18" font-weight="bold" fill="#8b8b8b">Carried-over experience — recall of injected memory</text>

  <!-- y axis: 0%..100%, y(v) = 330 - 2.9*v -->
  <g font-size="12" fill="#8b8b8b">
    <text x="52" y="334" text-anchor="end">0%</text>
    <text x="52" y="189" text-anchor="end">50%</text>
    <text x="52" y="44" text-anchor="end">100%</text>
  </g>
  <line x1="60" y1="330" x2="690" y2="330" stroke="#8b8b8b" stroke-width="1"/>
  <line x1="60" y1="185" x2="690" y2="185" stroke="#8b8b8b" stroke-width="0.4"/>
  <line x1="60" y1="40" x2="690" y2="40" stroke="#8b8b8b" stroke-width="0.4"/>

  <!-- 92% threshold -->
  <line x1="60" y1="63.2" x2="690" y2="63.2" stroke="#8b8b8b" stroke-width="1.5" stroke-dasharray="6 5"/>
  <text x="686" y="58" text-anchor="end" font-size="11" fill="#8b8b8b">92% threshold</text>

  <!-- budget 500 tokens -->
  <rect x="140" y="63.2" width="70" height="266.8" fill="#14b8a6"/>
  <text x="175" y="55" text-anchor="middle" font-size="14" font-weight="bold" fill="#14b8a6">92%</text>
  <rect x="230" y="83.5" width="70" height="246.5" fill="#6366f1"/>
  <text x="265" y="75" text-anchor="middle" font-size="14" font-weight="bold" fill="#6366f1">85%</text>
  <text x="220" y="355" text-anchor="middle" font-size="13" fill="#8b8b8b">budget 500 tokens</text>

  <!-- budget 2000 tokens -->
  <rect x="440" y="40" width="70" height="290" fill="#14b8a6"/>
  <text x="475" y="32" text-anchor="middle" font-size="14" font-weight="bold" fill="#14b8a6">100%</text>
  <rect x="530" y="63.2" width="70" height="266.8" fill="#6366f1"/>
  <text x="565" y="55" text-anchor="middle" font-size="14" font-weight="bold" fill="#6366f1">92%</text>
  <text x="520" y="355" text-anchor="middle" font-size="13" fill="#8b8b8b">budget 2000 tokens</text>

  <!-- legend -->
  <g font-size="12" fill="#8b8b8b">
    <rect x="480" y="370" width="12" height="12" fill="#14b8a6"/>
    <text x="497" y="380">qwen3-coder:30b</text>
    <rect x="610" y="370" width="12" height="12" fill="#6366f1"/>
    <text x="627" y="380">qwen3:4b</text>
  </g>

  <text x="60" y="380" font-size="11" fill="#8b8b8b">ct eval, 14 questions, deterministic judge, temperature 0</text>
</svg>
